<?xml version="1.0" encoding="UTF-8" standalone="no"?>
<!-- Created with Inkscape (http://www.inkscape.org/) -->

<svg
   width="259.45615mm"
   height="81.745346mm"
   viewBox="0 0 259.45615 81.745346"
   version="1.1"
   id="svg5"
   inkscape:version="1.1 (c4e8f9ed74, 2021-05-24)"
   sodipodi:docname="futhark.svg"
   inkscape:export-filename="/home/peter/Projects/futhark/futhark.png"
   inkscape:export-xdpi="81.25"
   inkscape:export-ydpi="81.25"
   xmlns:inkscape="http://www.inkscape.org/namespaces/inkscape"
   xmlns:sodipodi="http://sodipodi.sourceforge.net/DTD/sodipodi-0.dtd"
   xmlns="http://www.w3.org/2000/svg"
   xmlns:svg="http://www.w3.org/2000/svg">
  <sodipodi:namedview
     id="namedview7"
     pagecolor="#505050"
     bordercolor="#eeeeee"
     borderopacity="1"
     inkscape:pageshadow="0"
     inkscape:pageopacity="0"
     inkscape:pagecheckerboard="0"
     inkscape:document-units="mm"
     showgrid="false"
     fit-margin-top="0"
     fit-margin-left="0"
     fit-margin-right="0"
     fit-margin-bottom="0"
     inkscape:zoom="0.80087682"
     inkscape:cx="501.94985"
     inkscape:cy="115.49841"
     inkscape:window-width="3840"
     inkscape:window-height="2130"
     inkscape:window-x="0"
     inkscape:window-y="30"
     inkscape:window-maximized="1"
     inkscape:current-layer="layer1">
    <sodipodi:guide
       position="17.750439,18.015836"
       orientation="0,793.70079"
       id="guide36372" />
    <sodipodi:guide
       position="192.71325,154.45498"
       orientation="1122.5197,0"
       id="guide36374" />
    <sodipodi:guide
       position="192.71325,-142.54501"
       orientation="0,-793.70079"
       id="guide36376" />
    <sodipodi:guide
       position="-17.286748,-142.54501"
       orientation="-1122.5197,0"
       id="guide36378" />
  </sodipodi:namedview>
  <defs
     id="defs2">
    <rect
       x="402.16541"
       y="264.25092"
       width="800.32581"
       height="266.04364"
       id="rect8459" />
    <rect
       x="387.35681"
       y="264.20621"
       width="675.53339"
       height="236.39526"
       id="rect5483" />
  </defs>
  <g
     inkscape:label="Layer 1"
     inkscape:groupmode="layer"
     id="layer1"
     transform="translate(-17.286748,-72.709641)">
    <path
       style="fill:#ffffff;fill-opacity:1;stroke:#000000;stroke-width:0.999996;stroke-opacity:1"
       d="m 20.547693,149.13118 c -0.213925,-0.52979 -0.55717,-1.24902 -0.762768,-1.59828 -0.603813,-1.02574 -0.830315,-1.463 -1.08351,-2.09172 -0.131297,-0.32602 -0.34463,-0.7774 -0.474073,-1.00307 -0.129444,-0.22566 -0.281917,-0.49199 -0.33883,-0.59184 -0.08576,-0.15046 -0.103165,-0.32889 -0.101651,-1.04199 9.77e-4,-0.47324 0.02809,-1.06051 0.06019,-1.30503 0.06592,-0.5021 0.27712,-2.82127 0.350884,-3.853 0.0622,-0.87006 0.141798,-1.26042 0.332372,-1.63012 0.459633,-0.89166 0.553806,-1.1071 0.667525,-1.52705 0.202879,-0.7492 0.182015,-0.93264 -0.284629,-2.50252 -0.06762,-0.22751 -0.122996,-0.56094 -0.123041,-0.74096 -1.18e-4,-0.49085 -0.147303,-1.23378 -0.346105,-1.74703 -0.214894,-0.5548 -0.202008,-0.71212 0.111912,-1.3663 0.222508,-0.46368 0.226378,-0.48309 0.174162,-0.87364 -0.03775,-0.28235 -0.139908,-0.57771 -0.348535,-1.0077 -0.252605,-0.52064 -0.304525,-0.68944 -0.36032,-1.17142 -0.03586,-0.30973 -0.105589,-0.86335 -0.154967,-1.23029 -0.07418,-0.55121 -0.07731,-0.74468 -0.018,-1.11323 0.04044,-0.2513 0.05674,-0.64536 0.03735,-0.90247 -0.03244,-0.42997 9.08e-4,-0.73348 0.141516,-1.28871 0.03965,-0.15654 0.04117,-0.45867 0.0045,-0.88916 -0.05808,-0.68149 -0.01701,-1.80803 0.140465,-3.85301 0.0477,-0.61944 0.08714,-1.27297 0.08764,-1.45229 5.74e-4,-0.20622 0.04675,-0.42404 0.125657,-0.59277 0.120971,-0.25867 0.12523,-0.35651 0.140606,-3.2306 0.0158,-2.95363 0.03529,-3.26527 0.234011,-3.74206 0.04683,-0.11235 0.125579,-0.47732 0.175011,-0.81105 0.09769,-0.65957 0.07542,-0.93617 -0.138115,-1.71535 -0.117549,-0.42894 -0.246617,-1.20963 -0.363031,-2.19588 -0.03384,-0.28666 -0.0638,-1.35365 -0.0666,-2.371083 -0.0049,-1.781554 0.0429,-2.50763 0.197498,-3.000314 0.03699,-0.11788 0.0679,-0.846155 0.07423,-1.748676 0.01035,-1.476819 0.01784,-1.570761 0.165848,-2.080157 0.08526,-0.293421 0.198587,-0.653529 0.251849,-0.80024 0.06732,-0.185449 0.107803,-0.564867 0.132808,-1.244819 0.05056,-1.374825 0.03887,-1.584413 -0.126543,-2.268679 -0.206795,-0.855459 -0.285698,-2.009031 -0.179316,-2.621603 0.0453,-0.260866 0.104122,-0.821069 0.130709,-1.244896 0.04263,-0.679616 0.07043,-0.819599 0.235469,-1.185546 0.102922,-0.228212 0.228336,-0.640396 0.278699,-0.91595 0.05036,-0.275555 0.13102,-0.561373 0.179237,-0.635145 0.04822,-0.07377 0.08783,-0.248438 0.08802,-0.388141 5.62e-4,-0.41107 0.162709,-1.370834 0.286986,-1.698715 0.129421,-0.341457 0.602019,-1.020064 1.008891,-1.448676 0.148896,-0.156852 0.497017,-0.44602 0.773602,-0.642597 0.276585,-0.196576 0.574794,-0.455026 0.662686,-0.574332 0.08789,-0.119307 0.439826,-0.520629 0.782076,-0.891828 0.34225,-0.371198 0.701081,-0.81133 0.797401,-0.978071 0.321347,-0.55629 0.514462,-0.719358 1.098406,-0.927507 0.292693,-0.104331 0.611996,-0.261516 0.70956,-0.349299 0.350287,-0.315166 0.598899,-0.460697 1.073184,-0.628211 l 0.481884,-0.170197 0.255614,0.115422 c 0.200525,0.09055 0.359837,0.111673 0.739224,0.09802 0.369687,-0.01329 0.564851,0.01123 0.828466,0.104111 0.490633,0.172872 0.668715,0.319808 1.117494,0.922053 0.509593,0.683851 0.768234,0.953043 0.996831,1.037493 0.57541,0.212573 0.819918,0.401443 1.60254,1.237883 1.071997,1.145715 1.671667,1.652752 2.384439,2.016109 0.140466,0.07161 0.408191,0.271016 0.594945,0.443131 0.186754,0.172113 0.508594,0.428015 0.7152,0.56867 0.206606,0.140654 0.600443,0.465021 0.875193,0.720825 0.27475,0.255804 0.617829,0.538584 0.762398,0.628396 0.484456,0.300976 0.846573,0.609121 0.997544,0.848864 0.08237,0.130811 0.215777,0.262994 0.296458,0.29375 0.08068,0.03074 0.170002,0.116403 0.19849,0.190343 0.06556,0.170165 0.271663,0.358134 0.537384,0.4901 0.113825,0.05657 0.260182,0.151409 0.325238,0.210835 0.217851,0.19901 0.622514,0.244917 1.28443,0.145696 0.329436,-0.04936 0.75638,-0.08978 0.948771,-0.08978 0.325155,0 0.369202,0.01708 0.625231,0.242663 0.186671,0.164458 0.418354,0.290383 0.718911,0.390738 0.387255,0.129306 0.480958,0.140319 0.739123,0.08687 0.162612,-0.03368 0.489974,-0.09212 0.727481,-0.129879 0.421566,-0.067 0.437085,-0.06504 0.653605,0.08541 0.166586,0.11573 0.295362,0.154083 0.517441,0.154083 0.260261,0 0.319666,0.02485 0.496238,0.207467 0.177328,0.183404 0.235377,0.207468 0.500485,0.207468 0.219544,0 0.356128,0.0383 0.509815,0.143007 0.277685,0.189159 0.641237,0.284208 1.154865,0.301935 0.357133,0.01232 0.485706,0.04873 0.849572,0.24038 0.23581,0.12423 0.634044,0.414298 0.88496,0.64461 0.499004,0.458028 1.315808,0.949206 1.68809,1.015123 0.130088,0.02303 0.309657,0.07899 0.399043,0.124348 0.189773,0.09629 0.771242,0.780036 0.937605,1.102505 0.226661,0.439362 1.036369,1.104227 1.605037,1.317919 0.261364,0.09821 0.431463,0.226455 1.286113,0.969614 0.178871,0.155532 0.451569,0.369154 0.606003,0.474705 0.154434,0.105557 0.324373,0.276408 0.377639,0.379669 0.05329,0.103261 0.228051,0.359359 0.388414,0.569102 0.329254,0.430646 0.897021,1.569221 0.998804,2.002954 0.03708,0.15806 0.09091,0.3337 0.119584,0.390312 0.0287,0.05664 0.05217,0.478961 0.05217,0.938557 0,0.634444 0.0278,0.945033 0.115527,1.290081 0.09098,0.357889 0.114437,0.643371 0.110429,1.343606 l -0.0049,0.889157 0.303477,1.005523 c 0.166914,0.553034 0.303477,1.037714 0.303477,1.077074 0,0.0393 0.106434,0.38586 0.236522,0.77001 0.15984,0.47202 0.237361,0.80506 0.239114,1.02726 0.0014,0.18085 0.04386,0.4355 0.09425,0.56591 0.235565,0.60939 0.393889,1.11713 0.526792,1.6894 0.0795,0.34233 0.18457,0.76827 0.233492,0.94653 0.04889,0.17827 0.08895,0.40688 0.08895,0.50801 0,0.10114 0.104569,0.55546 0.232381,1.00961 0.230055,0.81749 0.307639,1.231 0.418389,2.23014 0.06006,0.54174 0.327983,1.40164 0.641621,2.05926 0.100016,0.20969 0.198677,0.50311 0.219252,0.65205 0.08156,0.59028 0.220347,1.08246 0.413821,1.46754 0.165252,0.32889 0.202888,0.47127 0.203035,0.76811 1.82e-4,0.32111 0.03673,0.43709 0.308093,0.97662 l 0.307911,0.61223 0.04972,0.86097 c 0.02738,0.47354 0.03953,1.31445 0.02703,1.86869 -0.02081,0.92532 -0.0352,1.03679 -0.17577,1.36337 -0.140885,0.3273 -0.156285,0.44784 -0.193124,1.51156 -0.03576,1.03209 -0.02619,1.23846 0.08939,1.92651 0.09431,0.56156 0.12918,1.01549 0.128538,1.67331 -4.75e-4,0.49649 -0.01725,0.92921 -0.03715,0.9616 -0.01997,0.0324 -0.06279,0.29303 -0.09523,0.57922 -0.03241,0.28618 -0.09933,0.67672 -0.148707,0.86787 -0.04938,0.19115 -0.103822,0.57793 -0.120982,0.85952 -0.01718,0.28158 -0.08643,0.73871 -0.153931,1.01583 -0.09421,0.38677 -0.117762,0.64161 -0.101385,1.09662 0.05294,1.47173 0.01138,2.13842 -0.174945,2.80621 -0.257956,0.92436 -0.359655,1.54866 -0.359655,2.20774 0,0.54807 -0.02032,0.64706 -0.324149,1.57913 -0.178277,0.54691 -0.35339,1.18112 -0.389141,1.40933 -0.09144,0.58381 -0.194773,2.69444 -0.17806,3.63707 0.01564,0.88409 -0.08497,1.4569 -0.331042,1.8842 -0.280025,0.48625 -0.421532,0.95346 -0.485965,1.60452 -0.177795,1.79646 -0.18943,2.01354 -0.128203,2.39184 0.0667,0.41198 0.08355,1.6608 0.02542,1.87839 l -0.03569,0.13337 H 41.291439 20.936906 l -0.388953,-0.96325 z"
       id="path972" />
    <g
       transform="matrix(0.60070386,0,0,0.60219793,52.834679,129.74158)"
       id="fehu"
       style="stroke-width:0.439909">
      <path
         d="m -29.627731,11.121872 v -60"
         id="path1578"
         style="fill:none;fill-opacity:0.75;fill-rule:evenodd;stroke:#000000;stroke-width:4.15662;stroke-linecap:butt;stroke-linejoin:miter;stroke-miterlimit:4;stroke-dasharray:none;stroke-dashoffset:0;stroke-opacity:1" />
      <path
         d="m -6.6277307,-46.878128 -23.0000003,23"
         id="path1580"
         style="fill:none;fill-opacity:0.75;fill-rule:evenodd;stroke:#000000;stroke-width:4.15662;stroke-linecap:butt;stroke-linejoin:miter;stroke-miterlimit:4;stroke-dasharray:none;stroke-opacity:1" />
      <path
         d="M -6.6277307,-31.878128 -29.627731,-8.8781282"
         id="path1582"
         style="fill:none;fill-opacity:0.75;fill-rule:evenodd;stroke:#000000;stroke-width:4.15662;stroke-linecap:butt;stroke-linejoin:miter;stroke-miterlimit:4;stroke-dasharray:none;stroke-opacity:1" />
    </g>
    <text
       xml:space="preserve"
       transform="scale(0.26458333)"
       id="text5481"
       style="font-style:normal;font-variant:normal;font-weight:normal;font-stretch:normal;font-size:48px;line-height:20px;font-family:Akaash;-inkscape-font-specification:Akaash;letter-spacing:0px;word-spacing:0px;writing-mode:lr-tb;white-space:pre;shape-inside:url(#rect5483);fill:#000000;fill-opacity:1;stroke:#ffffff;stroke-width:0.377953;stroke-linecap:butt;stroke-linejoin:miter;stroke-miterlimit:4;stroke-dasharray:none;stroke-opacity:1" />
    <text
       xml:space="preserve"
       transform="matrix(0.26458333,0,0,0.26458333,-34.630874,47.755707)"
       id="text8457"
       style="font-style:normal;font-variant:normal;font-weight:normal;font-stretch:normal;font-size:48px;line-height:47.5px;font-family:Akaash;-inkscape-font-specification:Akaash;letter-spacing:0px;word-spacing:0px;writing-mode:lr-tb;white-space:pre;shape-inside:url(#rect8459);fill:#000000;fill-opacity:1;stroke:#ffffff;stroke-width:1.51181104;stroke-linecap:butt;stroke-linejoin:miter;stroke-miterlimit:4;stroke-dasharray:none;stroke-opacity:1"><tspan
         x="402.16602"
         y="334.66667"
         id="tspan14586"><tspan
           style="font-size:160px;font-family:Urbanist;-inkscape-font-specification:Urbanist"
           id="tspan14582">Futhark</tspan><tspan
           style="font-family:Urbanist;-inkscape-font-specification:Urbanist"
           id="tspan14584">
</tspan></tspan><tspan
         x="402.16602"
         y="388.36457"
         id="tspan14590"><tspan
           style="font-size:64px;font-family:Urbanist;-inkscape-font-specification:Urbanist"
           id="tspan14588">Automatic C imports in Nim</tspan></tspan></text>
  </g>
</svg>
